<?xml version="1.0" encoding="UTF-8"?><svg id="Layer_2" xmlns="http://www.w3.org/2000/svg" viewBox="0 0 915.17 209.35"><defs><style>.cls-1{letter-spacing:-.06em;}.cls-2{letter-spacing:-.06em;}.cls-3{font-family:Montserrat-Bold, Montserrat;font-size:37.3px;font-weight:700;}.cls-3,.cls-4{fill:#fff;}.cls-4{stroke-width:0px;}</style></defs><g id="Layer_1-2"><path class="cls-4" d="m881.1,0h34.07v24.57h-49.08v-9.56C866.09,6.73,872.82,0,881.1,0Z"/><path class="cls-4" d="m501.13,24.58v85.12c0,20.34,16.49,36.83,36.83,36.83h108.12v-24.56h-120.39V24.58h-24.56Z"/><path class="cls-4" d="m281.15,49.44h113.09v-24.87h-100.82c-20.34,0-36.83,16.49-36.83,36.83v48.05c0,20.34,16.49,36.83,36.83,36.83h100.82v-24.56h-113.09v-23.99h88.95v-24.56s-67.18.02-88.95.02v-23.76Z"/><path class="cls-4" d="m156.79,24.57l-62.55,90.28L31.09,24.57H0l76.86,111.98c8.43,12.66,25.05,13.11,34,.92L186.99,24.57h-30.2Z"/><path class="cls-4" d="m866.05,49.44v72.33h-58.58s-61.81,0-61.81,0v-.04l.04.03V49.44h120.35l.04-24.87h-108.12c-20.34,0-36.83,16.49-36.83,36.83v47.91c0,20.34,16.49,37.03,36.83,37.03h95.81c20.34,0,36.83-16.49,36.83-36.83v-60.06h-24.56Z"/><text class="cls-3" transform="translate(628.79 199.43)"><tspan class="cls-1" x="0" y="0">L</tspan><tspan class="cls-2" x="20.29" y="0">E</tspan><tspan class="cls-1" x="43.01" y="0">GAL DESIGN</tspan></text></g></svg>