<?xml version="1.0" encoding="UTF-8"?>
<!DOCTYPE svg PUBLIC "-//W3C//DTD SVG 1.1//EN" "http://www.w3.org/Graphics/SVG/1.1/DTD/svg11.dtd">
<svg xmlns="http://www.w3.org/2000/svg" version="1.1" width="1280px" height="127px" style="shape-rendering:geometricPrecision; text-rendering:geometricPrecision; image-rendering:optimizeQuality; fill-rule:evenodd; clip-rule:evenodd" xmlns:xlink="http://www.w3.org/1999/xlink">
<g><path style="opacity:0.923" fill="#fefffe" d="M 776.5,13.5 C 794.746,11.3447 810.579,16.3447 824,28.5C 828.985,34.4578 831.818,41.2911 832.5,49C 832.456,50.7642 832.122,52.4309 831.5,54C 824.833,54.6667 818.167,54.6667 811.5,54C 806.043,36.7649 794.377,30.0983 776.5,34C 758.549,42.5756 752.715,56.4089 759,75.5C 766.083,88.9874 777.249,94.4874 792.5,92C 797.767,90.8066 802.267,88.3066 806,84.5C 807.978,80.712 809.811,76.8787 811.5,73C 818.414,72.1888 825.248,72.3555 832,73.5C 832.858,86.6162 827.691,96.7828 816.5,104C 798.323,113.771 779.656,114.771 760.5,107C 738.086,93.8078 729.586,74.3078 735,48.5C 742.096,28.7199 755.93,17.0532 776.5,13.5 Z"/></g>
<g><path style="opacity:0.925" fill="#fefffe" d="M 976.5,13.5 C 999.693,11.0211 1018.19,19.0211 1032,37.5C 1043.59,61.5224 1039.76,82.689 1020.5,101C 996.606,116.555 972.939,116.221 949.5,100C 929.87,79.8325 927.37,57.6658 942,33.5C 951.258,22.7933 962.758,16.1266 976.5,13.5 Z M 977.5,33.5 C 1000.18,30.6548 1012.85,40.4881 1015.5,63C 1014.09,81.5431 1004.09,91.3764 985.5,92.5C 967.218,90.8846 957.218,80.8846 955.5,62.5C 956.844,48.0916 964.177,38.425 977.5,33.5 Z"/></g>
<g><path style="opacity:0.919" fill="#fefffe" d="M 1185.5,13.5 C 1195.61,13.0584 1205.61,13.8917 1215.5,16C 1224.99,19.3112 1231.82,25.4779 1236,34.5C 1236.17,36.3333 1236.33,38.1667 1236.5,40C 1236.4,42.3023 1235.73,44.3023 1234.5,46C 1228.5,46.6667 1222.5,46.6667 1216.5,46C 1214.32,43.1779 1212.32,40.1779 1210.5,37C 1205.77,34.0613 1200.6,32.8947 1195,33.5C 1189.11,32.9294 1183.61,34.096 1178.5,37C 1172.54,43.7497 1173.87,48.4164 1182.5,51C 1195.21,51.9376 1207.88,53.2709 1220.5,55C 1239.84,61.6786 1245.67,74.5119 1238,93.5C 1232.73,102.052 1225.23,107.552 1215.5,110C 1209.36,111.038 1203.19,111.871 1197,112.5C 1183.51,112.668 1171.34,108.835 1160.5,101C 1154.13,95.234 1151.3,88.0673 1152,79.5C 1152.9,78.2986 1154.07,77.4652 1155.5,77C 1160.83,76.3333 1166.17,76.3333 1171.5,77C 1174.42,79.0343 1176.25,81.8677 1177,85.5C 1180.43,88.9839 1184.6,91.1506 1189.5,92C 1197.83,93.3151 1205.83,92.3151 1213.5,89C 1220.49,83.3404 1220.16,78.3404 1212.5,74C 1197.42,72.5372 1182.42,70.5372 1167.5,68C 1153.03,60.9472 1148.53,49.7805 1154,34.5C 1157.11,27.7215 1161.95,22.5548 1168.5,19C 1174.06,16.4678 1179.73,14.6344 1185.5,13.5 Z"/></g>
<g><path style="opacity:0.924" fill="#fefffe" d="M 41.5,15.5 C 53.1714,15.3335 64.8381,15.5001 76.5,16C 94.1477,20.4656 101.314,31.6323 98,49.5C 96.6981,53.2743 94.5314,56.441 91.5,59C 101.164,66.9915 104.664,77.1582 102,89.5C 97.3112,101.505 88.4778,108.338 75.5,110C 55.5,110.667 35.5,110.667 15.5,110C 14.5071,90.5761 14.1737,71.0761 14.5,51.5C 33.9013,51.9627 53.2346,51.4627 72.5,50C 77.7144,42.7445 76.0477,37.7445 67.5,35C 58.8397,34.5002 50.1731,34.3336 41.5,34.5C 41.5,28.1667 41.5,21.8333 41.5,15.5 Z M 37.5,69.5 C 48.8877,69.1167 60.2211,69.6167 71.5,71C 78.9941,73.8303 81.1608,78.997 78,86.5C 76.4423,88.7676 74.2756,89.9343 71.5,90C 60.1716,90.4999 48.8382,90.6665 37.5,90.5C 37.5,83.5 37.5,76.5 37.5,69.5 Z"/></g>
<g><path style="opacity:0.936" fill="#fefffe" d="M 116.5,15.5 C 135.836,15.3334 155.17,15.5 174.5,16C 197.804,22.0962 206.637,36.9295 201,60.5C 198.888,64.2784 196.388,67.7784 193.5,71C 189.958,73.375 186.291,75.5417 182.5,77.5C 189.333,87.1667 196.167,96.8333 203,106.5C 203.49,107.793 203.657,109.127 203.5,110.5C 195.16,110.666 186.827,110.5 178.5,110C 171.833,100.667 165.167,91.3333 158.5,82C 152.175,81.5005 145.842,81.3338 139.5,81.5C 139.666,90.8393 139.5,100.173 139,109.5C 131.667,110.833 124.333,110.833 117,109.5C 116.5,78.1684 116.333,46.8351 116.5,15.5 Z M 139.5,34.5 C 148.506,34.3336 157.506,34.5002 166.5,35C 178.197,37.4274 182.031,44.2607 178,55.5C 175.239,59.5341 171.406,61.7007 166.5,62C 157.506,62.4998 148.506,62.6664 139.5,62.5C 139.5,53.1667 139.5,43.8333 139.5,34.5 Z"/></g>
<g><path style="opacity:0.928" fill="#fefffe" d="M 253.5,15.5 C 260.09,15.189 266.59,15.5223 273,16.5C 287.545,47.2579 302.378,77.9246 317.5,108.5C 317.291,109.086 316.957,109.586 316.5,110C 308.833,110.667 301.167,110.667 293.5,110C 290.833,105 288.167,100 285.5,95C 270.489,94.1672 255.489,94.3338 240.5,95.5C 238.034,100.46 235.367,105.294 232.5,110C 224.841,110.5 217.174,110.666 209.5,110.5C 209.523,108.073 210.023,105.74 211,103.5C 225.917,74.4498 240.083,45.1165 253.5,15.5 Z M 262.5,45.5 C 267.573,55.5021 272.573,65.6687 277.5,76C 267.833,76.6667 258.167,76.6667 248.5,76C 254.28,66.3739 258.946,56.2072 262.5,45.5 Z"/></g>
<g><path style="opacity:0.939" fill="#fefffe" d="M 328.5,15.5 C 334.509,15.3338 340.509,15.5005 346.5,16C 365.695,34.8616 384.529,54.0283 403,73.5C 403.333,54.5 403.667,35.5 404,16.5C 411.413,15.5192 418.913,15.1858 426.5,15.5C 426.667,46.8351 426.5,78.1684 426,109.5C 420.25,110.641 414.416,110.807 408.5,110C 389.667,90.5 370.833,71 352,51.5C 351.667,70.8333 351.333,90.1667 351,109.5C 343.667,110.833 336.333,110.833 329,109.5C 328.5,78.1684 328.333,46.8351 328.5,15.5 Z"/></g>
<g><path style="opacity:0.926" fill="#fefffe" d="M 447.5,15.5 C 466.17,15.3334 484.836,15.5001 503.5,16C 536.629,26.0026 548.796,47.8359 540,81.5C 532.176,98.3133 519.01,107.813 500.5,110C 494.509,110.499 488.509,110.666 482.5,110.5C 482.334,104.158 482.5,97.8246 483,91.5C 506.284,93.8394 518.784,83.6728 520.5,61C 518.616,46.1166 510.283,37.4499 495.5,35C 487.173,34.5003 478.84,34.3336 470.5,34.5C 470.5,45.1667 470.5,55.8333 470.5,66.5C 462.833,66.5 455.167,66.5 447.5,66.5C 447.5,49.5 447.5,32.5 447.5,15.5 Z"/></g>
<g><path style="opacity:0.926" fill="#fefffe" d="M 578.5,15.5 C 595.17,15.3334 611.837,15.5001 628.5,16C 629.145,18.9136 629.478,21.9136 629.5,25C 629.442,28.276 628.776,31.276 627.5,34C 611.17,34.4999 594.837,34.6666 578.5,34.5C 578.5,28.1667 578.5,21.8333 578.5,15.5 Z"/></g>
<g><path style="opacity:0.929" fill="#fefffe" d="M 668.5,15.5 C 674.868,15.1703 681.202,15.5037 687.5,16.5C 702.5,47.1667 717.5,77.8333 732.5,108.5C 732.291,109.086 731.957,109.586 731.5,110C 723.833,110.667 716.167,110.667 708.5,110C 705.643,105.09 702.976,100.09 700.5,95C 685.5,94.3333 670.5,94.3333 655.5,95C 652.819,100.032 650.152,105.032 647.5,110C 639.841,110.5 632.174,110.666 624.5,110.5C 624.34,108.801 624.506,107.134 625,105.5C 639.736,75.693 654.236,45.693 668.5,15.5 Z M 677.5,43.5 C 681.496,54.667 686.496,65.5003 692.5,76C 682.833,76.6667 673.167,76.6667 663.5,76C 669.696,65.7791 674.363,54.9458 677.5,43.5 Z"/></g>
<g><path style="opacity:0.943" fill="#fefffe" d="M 836.5,15.5 C 867.835,15.3334 899.168,15.5 930.5,16C 931.639,21.4162 931.806,26.9162 931,32.5C 930.5,33 930,33.5 929.5,34C 918.172,34.4999 906.838,34.6665 895.5,34.5C 895.667,59.1689 895.5,83.8356 895,108.5C 891.598,109.789 887.931,110.456 884,110.5C 880.25,110.483 876.583,110.149 873,109.5C 872.5,84.5022 872.333,59.5022 872.5,34.5C 860.829,34.6665 849.162,34.4999 837.5,34C 836.524,27.9242 836.19,21.7576 836.5,15.5 Z"/></g>
<g><path style="opacity:0.924" fill="#fefffe" d="M 1085.5,15.5 C 1094.51,15.3336 1103.51,15.5002 1112.5,16C 1137.58,23.5685 1145.75,39.7351 1137,64.5C 1132.48,70.1957 1126.98,74.529 1120.5,77.5C 1126.86,86.0276 1133.03,94.6943 1139,103.5C 1140.41,105.65 1141.24,107.984 1141.5,110.5C 1133.16,110.666 1124.83,110.5 1116.5,110C 1109.83,100.667 1103.17,91.3333 1096.5,82C 1090.18,81.5005 1083.84,81.3338 1077.5,81.5C 1077.67,90.8393 1077.5,100.173 1077,109.5C 1069.91,110.646 1062.75,110.812 1055.5,110C 1054.51,94.2444 1054.18,78.4111 1054.5,62.5C 1071.17,62.6666 1087.84,62.4999 1104.5,62C 1115.92,59.9248 1119.75,53.4248 1116,42.5C 1113.46,38.1377 1109.62,35.6377 1104.5,35C 1098.18,34.5005 1091.84,34.3338 1085.5,34.5C 1085.5,28.1667 1085.5,21.8333 1085.5,15.5 Z"/></g>
<g><path style="opacity:0.827" fill="#fefffe" d="M 1244.5,15.5 C 1248.03,15.3459 1250.86,16.6792 1253,19.5C 1255.98,15.3738 1259.48,14.7072 1263.5,17.5C 1264.52,19.4325 1264.69,21.4325 1264,23.5C 1262.23,24.3041 1260.73,25.4708 1259.5,27C 1263.92,29.1604 1265.25,32.4937 1263.5,37C 1262.27,37.7811 1260.94,38.2811 1259.5,38.5C 1257.21,37.3859 1255.05,36.0526 1253,34.5C 1250.95,36.0526 1248.79,37.3859 1246.5,38.5C 1242.48,37.7834 1240.98,35.4501 1242,31.5C 1242.83,29.3333 1244.33,27.8333 1246.5,27C 1240.9,23.7955 1240.23,19.9622 1244.5,15.5 Z"/></g>
<g><path style="opacity:0.941" fill="#fefffe" d="M 553.5,56.5 C 576.502,56.3334 599.502,56.5 622.5,57C 623.476,63.0758 623.81,69.2424 623.5,75.5C 607.833,75.5 592.167,75.5 576.5,75.5C 576.812,86.8846 576.478,98.2179 575.5,109.5C 568.524,110.664 561.524,110.831 554.5,110C 553.508,92.2434 553.174,74.4101 553.5,56.5 Z"/></g>
</svg>
