<?xml version="1.0" encoding="UTF-8"?><svg id="Layer_2" xmlns="http://www.w3.org/2000/svg" viewBox="0 0 1202.23 234.15"><defs><style>.cls-1{letter-spacing:-.06em;}.cls-2{font-family:Montserrat-Bold, Montserrat;font-size:37.3px;font-weight:700;}.cls-3{letter-spacing:-.06em;}.cls-4{stroke-width:0px;}</style></defs><g id="Layer_1-2"><path class="cls-4" d="m1168.16,24.8h34.07v24.57h-49.08v-9.56c0-8.28,6.73-15.01,15.01-15.01Z"/><path class="cls-4" d="m788.19,49.38v85.12c0,20.34,16.49,36.83,36.83,36.83h108.12v-24.56h-120.39V49.38h-24.56Z"/><path class="cls-4" d="m568.21,74.24h113.09v-24.87h-100.82c-20.34,0-36.83,16.49-36.83,36.83v48.05c0,20.34,16.49,36.83,36.83,36.83h100.82v-24.56h-113.09v-23.99h88.95v-24.56s-67.18.02-88.95.02v-23.76Z"/><path class="cls-4" d="m443.85,49.37l-62.55,90.28-63.15-90.28h-31.09l76.86,111.98c8.43,12.66,25.05,13.11,34,.92l76.13-112.9h-30.2Z"/><path class="cls-4" d="m1153.11,74.24v72.33h-58.58s-61.81,0-61.81,0v-.04l.04.03v-72.33h120.35l.04-24.87h-108.12c-20.34,0-36.83,16.49-36.83,36.83v47.91c0,20.34,16.49,37.03,36.83,37.03h95.81c20.34,0,36.83-16.49,36.83-36.83v-60.06h-24.56Z"/><text class="cls-2" transform="translate(915.85 224.23)"><tspan class="cls-1" x="0" y="0">L</tspan><tspan class="cls-3" x="20.29" y="0">E</tspan><tspan class="cls-1" x="43.01" y="0">GAL DESIGN</tspan></text><path class="cls-4" d="m55.4,195.97v-98.6h-23.55v86.84c0,19.5,15.81,35.31,35.31,35.31h46.31c19.5,0,35.31-15.81,35.31-35.31v-86.84h-23.54v98.6h-23.25v-98.6h-23.54s.02,77.73.02,98.6h-23.07Z"/><path class="cls-4" d="m160.95,0H19.39v24.84s109.35-.01,141.56-.02V0s0,0,0,0Z"/><rect class="cls-4" x="31.86" y="49.47" width="116.93" height="24.76"/><path class="cls-4" d="m40.88,174.63l-30.17-28.3-6.64,6.64c-5.5,5.5-5.41,14.44.2,19.82l36.62,35.14v-33.3Z"/></g></svg>