<?xml version="1.0" encoding="UTF-8"?><svg id="Layer_2" xmlns="http://www.w3.org/2000/svg" viewBox="0 0 265.58 362.21"><defs><style>.cls-1{stroke-width:0px;}</style></defs><g id="Layer_1-2"><path class="cls-1" d="m91.42,323.36v-162.7h-38.85v143.29c0,32.18,26.09,58.27,58.27,58.27h76.41c32.18,0,58.26-26.09,58.26-58.26v-143.29h-38.85v162.7h-38.36v-162.7h-38.85s.03,128.26.04,162.7h-38.07Z"/><path class="cls-1" d="m265.58,0H32v40.99s180.43-.02,233.58-.03V0s0,0,0,0Z"/><rect class="cls-1" x="52.56" y="81.64" width="192.94" height="40.86"/><path class="cls-1" d="m67.45,288.15l-49.79-46.7-10.95,10.95c-9.07,9.07-8.92,23.82.32,32.71l60.42,57.98v-54.95Z"/></g></svg>